<svg xmlns="http://www.w3.org/2000/svg" style="display:none">
  <symbol id="koti-leaf" viewBox="0 0 24 24">
    <path d="M5 19c8 0 14-6 14-14C11 5 5 11 5 19Z" fill="none" stroke="currentColor" stroke-width="1.8" stroke-linecap="round" stroke-linejoin="round"/>
    <path d="M5 19c4-4 7-7 14-14" fill="none" stroke="currentColor" stroke-width="1.8" stroke-linecap="round"/>
  </symbol>
  <symbol id="koti-person" viewBox="0 0 24 24">
    <circle cx="12" cy="7.5" r="3.5" fill="none" stroke="currentColor" stroke-width="1.8"/>
    <path d="M5.5 20a6.5 6.5 0 0 1 13 0" fill="none" stroke="currentColor" stroke-width="1.8" stroke-linecap="round"/>
  </symbol>
  <symbol id="koti-heart" viewBox="0 0 24 24">
    <path d="M12 20s-7.5-4.8-9-10.1C1.9 6 4.3 3.5 7.2 3.5c1.8 0 3.3 1 4.1 2.4.8-1.4 2.3-2.4 4.1-2.4 2.9 0 5.3 2.5 4.2 6.4C18 15.2 12 20 12 20Z" fill="none" stroke="currentColor" stroke-width="1.8" stroke-linecap="round" stroke-linejoin="round"/>
  </symbol>
  <symbol id="koti-calendar" viewBox="0 0 24 24">
    <rect x="4" y="5.5" width="16" height="15" rx="2.5" fill="none" stroke="currentColor" stroke-width="1.8"/>
    <path d="M8 3.5v4M16 3.5v4M4 10h16" fill="none" stroke="currentColor" stroke-width="1.8" stroke-linecap="round"/>
    <path d="M8 14h.01M12 14h.01M16 14h.01M8 17h.01M12 17h.01" fill="none" stroke="currentColor" stroke-width="2.2" stroke-linecap="round"/>
  </symbol>
  <symbol id="koti-star" viewBox="0 0 24 24">
    <path d="m12 3 2.7 5.5 6 .9-4.4 4.3 1 6-5.3-2.8-5.3 2.8 1-6-4.4-4.3 6-.9L12 3Z" fill="none" stroke="currentColor" stroke-width="1.8" stroke-linejoin="round"/>
  </symbol>
  <symbol id="koti-globe-human" viewBox="0 0 24 24">
    <circle cx="12" cy="12" r="9" fill="none" stroke="currentColor" stroke-width="1.8"/>
    <path d="M8 10.5 12 7l4 3.5M12 7v10M8.5 17l3.5-4 3.5 4" fill="none" stroke="currentColor" stroke-width="1.8" stroke-linecap="round" stroke-linejoin="round"/>
  </symbol>
  <symbol id="koti-home" viewBox="0 0 24 24">
    <path d="m3.5 11 8.5-7 8.5 7" fill="none" stroke="currentColor" stroke-width="1.8" stroke-linecap="round" stroke-linejoin="round"/>
    <path d="M6 10v10h12V10" fill="none" stroke="currentColor" stroke-width="1.8" stroke-linejoin="round"/>
    <path d="M10 20v-6h4v6" fill="none" stroke="currentColor" stroke-width="1.8" stroke-linejoin="round"/>
  </symbol>
  <symbol id="koti-community" viewBox="0 0 24 24">
    <circle cx="12" cy="8" r="3" fill="none" stroke="currentColor" stroke-width="1.8"/>
    <path d="M6 20a6 6 0 0 1 12 0" fill="none" stroke="currentColor" stroke-width="1.8" stroke-linecap="round"/>
    <path d="M5.5 10.5a2.5 2.5 0 1 0-1.7 4.4M18.5 10.5a2.5 2.5 0 1 1 1.7 4.4M2.8 19a4.5 4.5 0 0 1 5-3.8M21.2 19a4.5 4.5 0 0 0-5-3.8" fill="none" stroke="currentColor" stroke-width="1.6" stroke-linecap="round"/>
  </symbol>
  <symbol id="koti-lotus" viewBox="0 0 24 24">
    <path d="M12 20c-5.5-2.5-7.5-6.5-7-11 4.1 1.1 6.2 4.2 7 11Z" fill="none" stroke="currentColor" stroke-width="1.8" stroke-linejoin="round"/>
    <path d="M12 20c5.5-2.5 7.5-6.5 7-11-4.1 1.1-6.2 4.2-7 11Z" fill="none" stroke="currentColor" stroke-width="1.8" stroke-linejoin="round"/>
    <path d="M12 20c-2.7-4.5-2.7-9.2 0-14 2.7 4.8 2.7 9.5 0 14Z" fill="none" stroke="currentColor" stroke-width="1.8" stroke-linejoin="round"/>
  </symbol>
  <symbol id="koti-shield-check" viewBox="0 0 24 24">
    <path d="M12 3.5 19 6v5.5c0 4.4-2.7 7.6-7 9-4.3-1.4-7-4.6-7-9V6l7-2.5Z" fill="none" stroke="currentColor" stroke-width="1.8" stroke-linejoin="round"/>
    <path d="m8.8 12.1 2.1 2.1 4.5-4.8" fill="none" stroke="currentColor" stroke-width="1.8" stroke-linecap="round" stroke-linejoin="round"/>
  </symbol>
  <symbol id="koti-user-round" viewBox="0 0 24 24">
    <circle cx="12" cy="12" r="9" fill="none" stroke="currentColor" stroke-width="1.8"/>
    <circle cx="12" cy="9" r="2.8" fill="none" stroke="currentColor" stroke-width="1.8"/>
    <path d="M7.2 18a5 5 0 0 1 9.6 0" fill="none" stroke="currentColor" stroke-width="1.8" stroke-linecap="round"/>
  </symbol>
  <symbol id="koti-play" viewBox="0 0 24 24">
    <circle cx="12" cy="12" r="9" fill="none" stroke="currentColor" stroke-width="1.8"/>
    <path d="m10 8.5 6 3.5-6 3.5v-7Z" fill="currentColor"/>
  </symbol>
  <symbol id="koti-arrow-right" viewBox="0 0 24 24">
    <path d="M5 12h14M13 6l6 6-6 6" fill="none" stroke="currentColor" stroke-width="1.8" stroke-linecap="round" stroke-linejoin="round"/>
  </symbol>
  <symbol id="koti-mail" viewBox="0 0 24 24">
    <rect x="4" y="6" width="16" height="12" rx="2.5" fill="none" stroke="currentColor" stroke-width="1.8"/>
    <path d="m5 7.5 7 5.2 7-5.2" fill="none" stroke="currentColor" stroke-width="1.8" stroke-linecap="round" stroke-linejoin="round"/>
  </symbol>
  <symbol id="koti-menu" viewBox="0 0 24 24">
    <path d="M5 7h14M5 12h14M5 17h14" fill="none" stroke="currentColor" stroke-width="1.8" stroke-linecap="round"/>
  </symbol>
</svg>
